<svg width="1512" height="717" viewBox="0 0 1512 717" fill="none" xmlns="http://www.w3.org/2000/svg">
<g filter="url(#filter0_n_2081_131)">
<g clip-path="url(#clip0_2081_131)">
<rect width="1512" height="717" fill="url(#paint0_linear_2081_131)"/>
<path d="M9.82129 615.78C11.5217 614.512 13.8543 614.512 15.5547 615.78L86.8564 668.976L86.8623 668.98L86.8682 668.984L159.745 719.958C161.498 721.184 162.226 723.422 161.531 725.444L132.705 809.269L132.703 809.275L132.701 809.283L106.468 893.97C105.838 896.002 103.943 897.376 101.815 897.344L12.6953 895.984H12.6807L-76.4395 897.344C-78.5672 897.376 -80.4621 896.002 -81.0918 893.97L-107.325 809.283L-107.327 809.275L-107.329 809.269L-136.154 725.444C-136.85 723.422 -136.122 721.184 -134.369 719.958L-61.4922 668.984L-61.4863 668.98L-61.4805 668.976L9.82129 615.78Z" stroke="#BDFFBF" stroke-opacity="0.2"/>
<path d="M307.14 615.78C308.84 614.512 311.173 614.512 312.873 615.78L384.175 668.976L384.181 668.98L384.187 668.984L457.063 719.958C458.816 721.184 459.545 723.422 458.85 725.444L430.023 809.269L430.021 809.275L430.02 809.283L403.786 893.97C403.156 896.002 401.262 897.376 399.134 897.344L310.014 895.984H309.999L220.879 897.344C218.751 897.376 216.856 896.002 216.227 893.97L189.993 809.283L189.991 809.275L189.989 809.269L161.164 725.444C160.469 723.422 161.197 721.184 162.949 719.958L235.826 668.984L235.832 668.98L235.838 668.976L307.14 615.78Z" stroke="#BDFFBF" stroke-opacity="0.2"/>
<path d="M604.458 615.78C606.158 614.512 608.491 614.512 610.191 615.78L681.493 668.976L681.499 668.98L681.505 668.984L754.382 719.958C756.134 721.184 756.863 723.422 756.168 725.444L727.342 809.269L727.34 809.275L727.338 809.283L701.104 893.97C700.475 896.002 698.58 897.376 696.452 897.344L607.332 895.984H607.317L518.197 897.344C516.07 897.376 514.175 896.002 513.545 893.97L487.312 809.283L487.31 809.275L487.308 809.269L458.482 725.444C457.787 723.422 458.515 721.184 460.268 719.958L533.145 668.984L533.15 668.98L533.156 668.976L604.458 615.78Z" stroke="#BDFFBF" stroke-opacity="0.2"/>
<path d="M901.776 615.78C903.477 614.512 905.809 614.512 907.51 615.78L978.812 668.976L978.817 668.98L978.823 668.984L1051.7 719.958C1053.45 721.184 1054.18 723.422 1053.49 725.444L1024.66 809.269L1024.66 809.275L1024.66 809.283L998.423 893.97C997.793 896.002 995.898 897.376 993.771 897.344L904.65 895.984H904.636L815.516 897.344C813.388 897.376 811.493 896.002 810.863 893.97L784.63 809.283L784.628 809.275L784.626 809.269L755.801 725.444C755.105 723.422 755.833 721.184 757.586 719.958L830.463 668.984L830.469 668.98L830.475 668.976L901.776 615.78Z" stroke="#BDFFBF" stroke-opacity="0.2"/>
<path d="M1199.09 615.78C1200.8 614.512 1203.13 614.512 1204.83 615.78L1276.13 668.976L1276.14 668.98L1276.14 668.984L1349.02 719.958C1350.77 721.184 1351.5 723.422 1350.8 725.444L1321.98 809.269L1321.98 809.275L1321.97 809.283L1295.74 893.97C1295.11 896.002 1293.22 897.376 1291.09 897.344L1201.97 895.984H1201.95L1112.83 897.344C1110.71 897.376 1108.81 896.002 1108.18 893.97L1081.95 809.283L1081.95 809.275L1081.94 809.269L1053.12 725.444C1052.42 723.422 1053.15 721.184 1054.9 719.958L1127.78 668.984L1127.79 668.98L1127.79 668.976L1199.09 615.78Z" stroke="#BDFFBF" stroke-opacity="0.2"/>
<path d="M1496.41 615.78C1498.11 614.512 1500.44 614.512 1502.14 615.78L1573.45 668.976L1573.45 668.98L1573.46 668.984L1646.33 719.958C1648.09 721.184 1648.82 723.422 1648.12 725.444L1619.29 809.269L1619.29 809.275L1619.29 809.283L1593.06 893.97C1592.43 896.002 1590.53 897.376 1588.41 897.344L1499.29 895.984H1499.27L1410.15 897.344C1408.02 897.376 1406.13 896.002 1405.5 893.97L1379.26 809.283L1379.26 809.275L1379.26 809.269L1350.44 725.444C1349.74 723.422 1350.47 721.184 1352.22 719.958L1425.1 668.984L1425.1 668.98L1425.11 668.976L1496.41 615.78Z" stroke="#BDFFBF" stroke-opacity="0.2"/>
<path d="M9.82129 293.778C11.5217 292.51 13.8543 292.51 15.5547 293.778L86.8564 346.974L86.8623 346.979L86.8682 346.982L159.745 397.956C161.498 399.182 162.226 401.42 161.531 403.442L132.705 487.267L132.703 487.273L132.701 487.281L106.468 571.968C105.838 574 103.943 575.374 101.815 575.342L12.6953 573.982H12.6807L-76.4395 575.342C-78.5672 575.374 -80.4621 574 -81.0918 571.968L-107.325 487.281L-107.327 487.273L-107.329 487.267L-136.154 403.442C-136.85 401.42 -136.122 399.182 -134.369 397.956L-61.4922 346.982L-61.4863 346.979L-61.4805 346.974L9.82129 293.778Z" stroke="#BDFFBF" stroke-opacity="0.2"/>
<path d="M307.14 293.778C308.84 292.51 311.173 292.51 312.873 293.778L384.175 346.974L384.181 346.979L384.187 346.982L457.063 397.956C458.816 399.182 459.545 401.42 458.85 403.442L430.023 487.267L430.021 487.273L430.02 487.281L403.786 571.968C403.156 574 401.262 575.374 399.134 575.342L310.014 573.982H309.999L220.879 575.342C218.751 575.374 216.856 574 216.227 571.968L189.993 487.281L189.991 487.273L189.989 487.267L161.164 403.442C160.469 401.42 161.197 399.182 162.949 397.956L235.826 346.982L235.832 346.979L235.838 346.974L307.14 293.778Z" stroke="#BDFFBF" stroke-opacity="0.2"/>
<path d="M604.458 293.778C606.158 292.51 608.491 292.51 610.191 293.778L681.493 346.974L681.499 346.979L681.505 346.982L754.382 397.956C756.134 399.182 756.863 401.42 756.168 403.442L727.342 487.267L727.34 487.273L727.338 487.281L701.104 571.968C700.475 574 698.58 575.374 696.452 575.342L607.332 573.982H607.317L518.197 575.342C516.07 575.374 514.175 574 513.545 571.968L487.312 487.281L487.31 487.273L487.308 487.267L458.482 403.442C457.787 401.42 458.515 399.182 460.268 397.956L533.145 346.982L533.15 346.979L533.156 346.974L604.458 293.778Z" stroke="#BDFFBF" stroke-opacity="0.2"/>
<path d="M901.776 293.778C903.477 292.51 905.809 292.51 907.51 293.778L978.812 346.974L978.817 346.979L978.823 346.982L1051.7 397.956C1053.45 399.182 1054.18 401.42 1053.49 403.442L1024.66 487.267L1024.66 487.273L1024.66 487.281L998.423 571.968C997.793 574 995.898 575.374 993.771 575.342L904.65 573.982H904.636L815.516 575.342C813.388 575.374 811.493 574 810.863 571.968L784.63 487.281L784.628 487.273L784.626 487.267L755.801 403.442C755.105 401.42 755.833 399.182 757.586 397.956L830.463 346.982L830.469 346.979L830.475 346.974L901.776 293.778Z" stroke="#BDFFBF" stroke-opacity="0.2"/>
<path d="M1199.09 293.778C1200.8 292.51 1203.13 292.51 1204.83 293.778L1276.13 346.974L1276.14 346.979L1276.14 346.982L1349.02 397.956C1350.77 399.182 1351.5 401.42 1350.8 403.442L1321.98 487.267L1321.98 487.273L1321.97 487.281L1295.74 571.968C1295.11 574 1293.22 575.374 1291.09 575.342L1201.97 573.982H1201.95L1112.83 575.342C1110.71 575.374 1108.81 574 1108.18 571.968L1081.95 487.281L1081.95 487.273L1081.94 487.267L1053.12 403.442C1052.42 401.42 1053.15 399.182 1054.9 397.956L1127.78 346.982L1127.79 346.979L1127.79 346.974L1199.09 293.778Z" stroke="#BDFFBF" stroke-opacity="0.2"/>
<path d="M1496.41 293.778C1498.11 292.51 1500.44 292.51 1502.14 293.778L1573.45 346.974L1573.45 346.979L1573.46 346.982L1646.33 397.956C1648.09 399.182 1648.82 401.42 1648.12 403.442L1619.29 487.267L1619.29 487.273L1619.29 487.281L1593.06 571.968C1592.43 574 1590.53 575.374 1588.41 575.342L1499.29 573.982H1499.27L1410.15 575.342C1408.02 575.374 1406.13 574 1405.5 571.968L1379.26 487.281L1379.26 487.273L1379.26 487.267L1350.44 403.442C1349.74 401.42 1350.47 399.182 1352.22 397.956L1425.1 346.982L1425.1 346.979L1425.11 346.974L1496.41 293.778Z" stroke="#BDFFBF" stroke-opacity="0.2"/>
<path d="M9.82129 116.778C11.5217 115.51 13.8543 115.51 15.5547 116.778L86.8564 169.974L86.8623 169.979L86.8682 169.982L159.745 220.956C161.498 222.182 162.226 224.42 161.531 226.442L132.705 310.267L132.703 310.273L132.701 310.281L106.468 394.968C105.838 397 103.943 398.374 101.815 398.342L12.6953 396.982H12.6807L-76.4395 398.342C-78.5672 398.374 -80.4621 397 -81.0918 394.968L-107.325 310.281L-107.327 310.273L-107.329 310.267L-136.154 226.442C-136.85 224.42 -136.122 222.182 -134.369 220.956L-61.4922 169.982L-61.4863 169.979L-61.4805 169.974L9.82129 116.778Z" stroke="#BDFFBF" stroke-opacity="0.2"/>
<path d="M307.14 116.778C308.84 115.51 311.173 115.51 312.873 116.778L384.175 169.974L384.181 169.979L384.187 169.982L457.063 220.956C458.816 222.182 459.545 224.42 458.85 226.442L430.023 310.267L430.021 310.273L430.02 310.281L403.786 394.968C403.156 397 401.262 398.374 399.134 398.342L310.014 396.982H309.999L220.879 398.342C218.751 398.374 216.856 397 216.227 394.968L189.993 310.281L189.991 310.273L189.989 310.267L161.164 226.442C160.469 224.42 161.197 222.182 162.949 220.956L235.826 169.982L235.832 169.979L235.838 169.974L307.14 116.778Z" stroke="#BDFFBF" stroke-opacity="0.2"/>
<path d="M604.458 116.778C606.158 115.51 608.491 115.51 610.191 116.778L681.493 169.974L681.499 169.979L681.505 169.982L754.382 220.956C756.134 222.182 756.863 224.42 756.168 226.442L727.342 310.267L727.34 310.273L727.338 310.281L701.104 394.968C700.475 397 698.58 398.374 696.452 398.342L607.332 396.982H607.317L518.197 398.342C516.07 398.374 514.175 397 513.545 394.968L487.312 310.281L487.31 310.273L487.308 310.267L458.482 226.442C457.787 224.42 458.515 222.182 460.268 220.956L533.145 169.982L533.15 169.979L533.156 169.974L604.458 116.778Z" stroke="#BDFFBF" stroke-opacity="0.2"/>
<path d="M901.776 116.778C903.477 115.51 905.809 115.51 907.51 116.778L978.812 169.974L978.817 169.979L978.823 169.982L1051.7 220.956C1053.45 222.182 1054.18 224.42 1053.49 226.442L1024.66 310.267L1024.66 310.273L1024.66 310.281L998.423 394.968C997.793 397 995.898 398.374 993.771 398.342L904.65 396.982H904.636L815.516 398.342C813.388 398.374 811.493 397 810.863 394.968L784.63 310.281L784.628 310.273L784.626 310.267L755.801 226.442C755.105 224.42 755.833 222.182 757.586 220.956L830.463 169.982L830.469 169.979L830.475 169.974L901.776 116.778Z" stroke="#BDFFBF" stroke-opacity="0.2"/>
<path d="M1199.09 116.778C1200.8 115.51 1203.13 115.51 1204.83 116.778L1276.13 169.974L1276.14 169.979L1276.14 169.982L1349.02 220.956C1350.77 222.182 1351.5 224.42 1350.8 226.442L1321.98 310.267L1321.98 310.273L1321.97 310.281L1295.74 394.968C1295.11 397 1293.22 398.374 1291.09 398.342L1201.97 396.982H1201.95L1112.83 398.342C1110.71 398.374 1108.81 397 1108.18 394.968L1081.95 310.281L1081.95 310.273L1081.94 310.267L1053.12 226.442C1052.42 224.42 1053.15 222.182 1054.9 220.956L1127.78 169.982L1127.79 169.979L1127.79 169.974L1199.09 116.778Z" stroke="#BDFFBF" stroke-opacity="0.2"/>
<path d="M1496.41 116.778C1498.11 115.51 1500.44 115.51 1502.14 116.778L1573.45 169.974L1573.45 169.979L1573.46 169.982L1646.33 220.956C1648.09 222.182 1648.82 224.42 1648.12 226.442L1619.29 310.267L1619.29 310.273L1619.29 310.281L1593.06 394.968C1592.43 397 1590.53 398.374 1588.41 398.342L1499.29 396.982H1499.27L1410.15 398.342C1408.02 398.374 1406.13 397 1405.5 394.968L1379.26 310.281L1379.26 310.273L1379.26 310.267L1350.44 226.442C1349.74 224.42 1350.47 222.182 1352.22 220.956L1425.1 169.982L1425.1 169.979L1425.11 169.974L1496.41 116.778Z" stroke="#BDFFBF" stroke-opacity="0.2"/>
<path d="M9.82129 235.216C11.5217 236.484 13.8543 236.484 15.5547 235.216L86.8564 182.021L86.8623 182.016L86.8682 182.012L159.745 131.038C161.498 129.812 162.226 127.574 161.531 125.552L132.705 41.7275L132.703 41.7207L132.701 41.7129L106.468 -42.9736C105.838 -45.0063 103.943 -46.3801 101.815 -46.3477L12.6953 -44.9883H12.6807L-76.4395 -46.3477C-78.5672 -46.3801 -80.4621 -45.0063 -81.0918 -42.9736L-107.325 41.7129L-107.327 41.7207L-107.329 41.7275L-136.154 125.552C-136.85 127.574 -136.122 129.812 -134.369 131.038L-61.4922 182.012L-61.4863 182.016L-61.4805 182.021L9.82129 235.216Z" stroke="#BDFFBF" stroke-opacity="0.2"/>
<path d="M307.14 235.216C308.84 236.484 311.173 236.484 312.873 235.216L384.175 182.021L384.181 182.016L384.187 182.012L457.063 131.038C458.816 129.812 459.545 127.574 458.85 125.552L430.023 41.7275L430.021 41.7207L430.02 41.7129L403.786 -42.9736C403.156 -45.0063 401.262 -46.3801 399.134 -46.3477L310.014 -44.9883H309.999L220.879 -46.3477C218.751 -46.3801 216.856 -45.0063 216.227 -42.9736L189.993 41.7129L189.991 41.7207L189.989 41.7275L161.164 125.552C160.469 127.574 161.197 129.812 162.949 131.038L235.826 182.012L235.832 182.016L235.838 182.021L307.14 235.216Z" stroke="#BDFFBF" stroke-opacity="0.2"/>
<path d="M604.458 235.216C606.158 236.484 608.491 236.484 610.191 235.216L681.493 182.021L681.499 182.016L681.505 182.012L754.382 131.038C756.134 129.812 756.863 127.574 756.168 125.552L727.342 41.7275L727.34 41.7207L727.338 41.7129L701.104 -42.9736C700.475 -45.0063 698.58 -46.3801 696.452 -46.3477L607.332 -44.9883H607.317L518.197 -46.3477C516.07 -46.3801 514.175 -45.0063 513.545 -42.9736L487.312 41.7129L487.31 41.7207L487.308 41.7275L458.482 125.552C457.787 127.574 458.515 129.812 460.268 131.038L533.145 182.012L533.15 182.016L533.156 182.021L604.458 235.216Z" stroke="#BDFFBF" stroke-opacity="0.2"/>
<path d="M901.776 235.216C903.477 236.484 905.809 236.484 907.51 235.216L978.812 182.021L978.817 182.016L978.823 182.012L1051.7 131.038C1053.45 129.812 1054.18 127.574 1053.49 125.552L1024.66 41.7275L1024.66 41.7207L1024.66 41.7129L998.423 -42.9736C997.793 -45.0063 995.898 -46.3801 993.771 -46.3477L904.65 -44.9883H904.636L815.516 -46.3477C813.388 -46.3801 811.493 -45.0063 810.863 -42.9736L784.63 41.7129L784.628 41.7207L784.626 41.7275L755.801 125.552C755.105 127.574 755.833 129.812 757.586 131.038L830.463 182.012L830.469 182.016L830.475 182.021L901.776 235.216Z" stroke="#BDFFBF" stroke-opacity="0.2"/>
<path d="M1199.09 235.216C1200.8 236.484 1203.13 236.484 1204.83 235.216L1276.13 182.021L1276.14 182.016L1276.14 182.012L1349.02 131.038C1350.77 129.812 1351.5 127.574 1350.8 125.552L1321.98 41.7275L1321.98 41.7207L1321.97 41.7129L1295.74 -42.9736C1295.11 -45.0063 1293.22 -46.3801 1291.09 -46.3477L1201.97 -44.9883H1201.95L1112.83 -46.3477C1110.71 -46.3801 1108.81 -45.0063 1108.18 -42.9736L1081.95 41.7129L1081.95 41.7207L1081.94 41.7275L1053.12 125.552C1052.42 127.574 1053.15 129.812 1054.9 131.038L1127.78 182.012L1127.79 182.016L1127.79 182.021L1199.09 235.216Z" stroke="#BDFFBF" stroke-opacity="0.2"/>
<path d="M1496.41 235.216C1498.11 236.484 1500.44 236.484 1502.14 235.216L1573.45 182.021L1573.45 182.016L1573.46 182.012L1646.33 131.038C1648.09 129.812 1648.82 127.574 1648.12 125.552L1619.29 41.7275L1619.29 41.7207L1619.29 41.7129L1593.06 -42.9736C1592.43 -45.0063 1590.53 -46.3801 1588.41 -46.3477L1499.29 -44.9883H1499.27L1410.15 -46.3477C1408.02 -46.3801 1406.13 -45.0063 1405.5 -42.9736L1379.26 41.7129L1379.26 41.7207L1379.26 41.7275L1350.44 125.552C1349.74 127.574 1350.47 129.812 1352.22 131.038L1425.1 182.012L1425.1 182.016L1425.11 182.021L1496.41 235.216Z" stroke="#BDFFBF" stroke-opacity="0.2"/>
<path d="M1499.14 732.218C1497.44 733.486 1495.11 733.486 1493.41 732.218L1422.11 679.022L1422.1 679.018L1422.1 679.014L1349.22 628.04C1347.47 626.814 1346.74 624.576 1347.43 622.554L1376.26 538.729L1376.26 538.723L1376.26 538.715L1402.5 454.028C1403.13 451.996 1405.02 450.622 1407.15 450.654L1496.27 452.014H1496.28L1585.4 450.654C1587.53 450.622 1589.43 451.996 1590.06 454.028L1616.29 538.715L1616.29 538.723L1616.29 538.729L1645.12 622.554C1645.81 624.576 1645.09 626.814 1643.33 628.04L1570.46 679.014L1570.45 679.018L1570.45 679.022L1499.14 732.218Z" stroke="#BDFFBF" stroke-opacity="0.2"/>
<path d="M1201.83 732.218C1200.12 733.486 1197.79 733.486 1196.09 732.218L1124.79 679.022L1124.78 679.018L1124.78 679.014L1051.9 628.04C1050.15 626.814 1049.42 624.576 1050.12 622.554L1078.94 538.729L1078.94 538.723L1078.95 538.715L1105.18 454.028C1105.81 451.996 1107.7 450.622 1109.83 450.654L1198.95 452.014H1198.97L1288.09 450.654C1290.21 450.622 1292.11 451.996 1292.74 454.028L1318.97 538.715L1318.97 538.723L1318.98 538.729L1347.8 622.554C1348.5 624.576 1347.77 626.814 1346.02 628.04L1273.14 679.014L1273.13 679.018L1273.13 679.022L1201.83 732.218Z" stroke="#BDFFBF" stroke-opacity="0.2"/>
<path d="M904.507 732.218C902.806 733.486 900.474 733.486 898.773 732.218L827.472 679.022L827.466 679.018L827.46 679.014L754.583 628.04C752.831 626.814 752.102 624.576 752.797 622.554L781.623 538.729L781.625 538.723L781.627 538.715L807.86 454.028C808.49 451.996 810.385 450.622 812.513 450.654L901.633 452.014H901.647L990.768 450.654C992.895 450.622 994.79 451.996 995.42 454.028L1021.65 538.715L1021.66 538.723L1021.66 538.729L1050.48 622.554C1051.18 624.576 1050.45 626.814 1048.7 628.04L975.82 679.014L975.814 679.018L975.809 679.022L904.507 732.218Z" stroke="#BDFFBF" stroke-opacity="0.2"/>
<path d="M607.188 732.218C605.488 733.486 603.155 733.486 601.455 732.218L530.153 679.022L530.147 679.018L530.142 679.014L457.265 628.04C455.512 626.814 454.783 624.576 455.479 622.554L484.305 538.729L484.307 538.723L484.309 538.715L510.542 454.028C511.172 451.996 513.067 450.622 515.194 450.654L604.314 452.014H604.329L693.449 450.654C695.577 450.622 697.472 451.996 698.102 454.028L724.335 538.715L724.337 538.723L724.339 538.729L753.164 622.554C753.859 624.576 753.131 626.814 751.379 628.04L678.502 679.014L678.496 679.018L678.49 679.022L607.188 732.218Z" stroke="#BDFFBF" stroke-opacity="0.2"/>
<path d="M309.87 732.218C308.17 733.486 305.837 733.486 304.137 732.218L232.835 679.022L232.829 679.018L232.823 679.014L159.946 628.04C158.194 626.814 157.465 624.576 158.16 622.554L186.986 538.729L186.988 538.723L186.99 538.715L213.224 454.028C213.853 451.996 215.748 450.622 217.876 450.654L306.996 452.014H307.011L396.131 450.654C398.259 450.622 400.153 451.996 400.783 454.028L427.017 538.715L427.019 538.723L427.021 538.729L455.846 622.554C456.541 624.576 455.813 626.814 454.061 628.04L381.184 679.014L381.178 679.018L381.172 679.022L309.87 732.218Z" stroke="#BDFFBF" stroke-opacity="0.2"/>
<path d="M12.5537 732.218C10.8533 733.486 8.52071 733.486 6.82031 732.218L-64.4814 679.022L-64.4873 679.018L-64.4932 679.014L-137.37 628.04C-139.123 626.814 -139.851 624.576 -139.156 622.554L-110.33 538.729L-110.328 538.723L-110.326 538.715L-84.0928 454.028C-83.463 451.996 -81.5682 450.622 -79.4404 450.654L9.67969 452.014H9.69434L98.8145 450.654C100.942 450.622 102.837 451.996 103.467 454.028L129.7 538.715L129.702 538.723L129.704 538.729L158.529 622.554C159.225 624.576 158.497 626.814 156.744 628.04L83.8672 679.014L83.8613 679.018L83.8555 679.022L12.5537 732.218Z" stroke="#BDFFBF" stroke-opacity="0.2"/>
</g>
</g>
<defs>
<filter id="filter0_n_2081_131" x="0" y="0" width="1512" height="717" filterUnits="userSpaceOnUse" color-interpolation-filters="sRGB">
<feFlood flood-opacity="0" result="BackgroundImageFix"/>
<feBlend mode="normal" in="SourceGraphic" in2="BackgroundImageFix" result="shape"/>
<feTurbulence type="fractalNoise" baseFrequency="2 2" stitchTiles="stitch" numOctaves="3" result="noise" seed="7979" />
<feColorMatrix in="noise" type="luminanceToAlpha" result="alphaNoise" />
<feComponentTransfer in="alphaNoise" result="coloredNoise1">
<feFuncA type="discrete" tableValues="1 1 1 1 1 1 1 1 1 1 1 1 1 1 1 1 1 1 1 1 1 1 1 1 1 1 1 1 1 1 1 1 1 1 1 1 1 1 1 1 1 1 1 1 1 1 1 1 1 1 1 0 0 0 0 0 0 0 0 0 0 0 0 0 0 0 0 0 0 0 0 0 0 0 0 0 0 0 0 0 0 0 0 0 0 0 0 0 0 0 0 0 0 0 0 0 0 0 0 0 "/>
</feComponentTransfer>
<feComposite operator="in" in2="shape" in="coloredNoise1" result="noise1Clipped" />
<feFlood flood-color="rgba(0, 0, 0, 0.25)" result="color1Flood" />
<feComposite operator="in" in2="noise1Clipped" in="color1Flood" result="color1" />
<feMerge result="effect1_noise_2081_131">
<feMergeNode in="shape" />
<feMergeNode in="color1" />
</feMerge>
</filter>
<linearGradient id="paint0_linear_2081_131" x1="-6.0786e-06" y1="20.515" x2="1524.06" y2="668.097" gradientUnits="userSpaceOnUse">
<stop stop-color="#15541F"/>
<stop offset="0.239216" stop-color="#3E834A"/>
<stop offset="0.49491" stop-color="#268539"/>
<stop offset="0.638316" stop-color="#35A54D"/>
<stop offset="0.897863" stop-color="#22A63E"/>
</linearGradient>
<clipPath id="clip0_2081_131">
<rect width="1512" height="717" fill="white"/>
</clipPath>
</defs>
</svg>
