<svg width="38" height="38" viewBox="0 0 38 38" fill="none" xmlns="http://www.w3.org/2000/svg">
<circle cx="19" cy="19" r="19" fill="#D9FFDB"/>
<path opacity="0.2" d="M23 20C23 20.7417 22.7801 21.4667 22.368 22.0834C21.956 22.7001 21.3703 23.1807 20.6851 23.4645C19.9998 23.7484 19.2458 23.8226 18.5184 23.6779C17.791 23.5333 17.1228 23.1761 16.5984 22.6517C16.0739 22.1272 15.7168 21.459 15.5721 20.7316C15.4274 20.0042 15.5016 19.2502 15.7855 18.5649C16.0693 17.8797 16.5499 17.294 17.1666 16.882C17.7833 16.4699 18.5083 16.25 19.25 16.25C20.2446 16.25 21.1984 16.6451 21.9017 17.3483C22.6049 18.0516 23 19.0054 23 20ZM13.25 11.75C12.6567 11.75 12.0766 11.9259 11.5833 12.2556C11.0899 12.5852 10.7054 13.0538 10.4784 13.6019C10.2513 14.1501 10.1919 14.7533 10.3076 15.3353C10.4234 15.9172 10.7091 16.4518 11.1287 16.8713C11.5482 17.2909 12.0828 17.5766 12.6647 17.6924C13.2467 17.8081 13.8499 17.7487 14.3981 17.5216C14.9462 17.2946 15.4148 16.9101 15.7444 16.4167C16.0741 15.9234 16.25 15.3433 16.25 14.75C16.25 13.9544 15.9339 13.1913 15.3713 12.6287C14.8087 12.0661 14.0457 11.75 13.25 11.75ZM25.25 11.75C24.6567 11.75 24.0766 11.9259 23.5833 12.2556C23.0899 12.5852 22.7054 13.0538 22.4784 13.6019C22.2513 14.1501 22.1919 14.7533 22.3076 15.3353C22.4234 15.9172 22.7091 16.4518 23.1287 16.8713C23.5482 17.2909 24.0828 17.5766 24.6647 17.6924C25.2467 17.8081 25.8499 17.7487 26.3981 17.5216C26.9462 17.2946 27.4148 16.9101 27.7444 16.4167C28.0741 15.9234 28.25 15.3433 28.25 14.75C28.25 13.9544 27.9339 13.1913 27.3713 12.6287C26.8087 12.0661 26.0457 11.75 25.25 11.75Z" fill="#009606"/>
<path d="M30.2003 20.5992C30.1215 20.6583 30.0318 20.7013 29.9364 20.7257C29.841 20.7502 29.7417 20.7556 29.6442 20.7417C29.5467 20.7277 29.4529 20.6947 29.3682 20.6445C29.2834 20.5944 29.2094 20.528 29.1503 20.4492C28.6982 19.8416 28.1098 19.3486 27.4324 19.0099C26.7551 18.6712 26.0076 18.4963 25.2503 18.4992C25.0514 18.4992 24.8606 18.4202 24.72 18.2795C24.5793 18.1389 24.5003 17.9481 24.5003 17.7492C24.5003 17.5503 24.5793 17.3595 24.72 17.2189C24.8606 17.0782 25.0514 16.9992 25.2503 16.9992C25.6711 16.9992 26.0835 16.8811 26.4406 16.6584C26.7976 16.4358 27.0851 16.1175 27.2704 15.7396C27.4556 15.3617 27.5312 14.9395 27.4885 14.5209C27.4458 14.1022 27.2865 13.7039 27.0288 13.3713C26.7711 13.0386 26.4253 12.7849 26.0306 12.6389C25.6359 12.4929 25.2082 12.4606 24.796 12.5455C24.3838 12.6304 24.0038 12.8292 23.6989 13.1193C23.3941 13.4095 23.1767 13.7792 23.0715 14.1867C23.0469 14.2821 23.0037 14.3717 22.9445 14.4505C22.8852 14.5292 22.811 14.5955 22.7261 14.6455C22.6413 14.6956 22.5474 14.7284 22.4498 14.7422C22.3522 14.756 22.2529 14.7504 22.1575 14.7258C22.0621 14.7011 21.9724 14.658 21.8937 14.5987C21.815 14.5394 21.7487 14.4652 21.6986 14.3804C21.6486 14.2955 21.6157 14.2016 21.602 14.104C21.5882 14.0064 21.5938 13.9071 21.6184 13.8117C21.7644 13.2467 22.0403 12.7235 22.4241 12.2839C22.8079 11.8443 23.289 11.5003 23.8291 11.2793C24.3692 11.0583 24.9534 10.9664 25.5353 11.0109C26.1172 11.0555 26.6807 11.2352 27.1809 11.5358C27.681 11.8364 28.1042 12.2497 28.4166 12.7426C28.729 13.2355 28.922 13.7945 28.9803 14.3752C29.0387 14.9559 28.9607 15.5421 28.7526 16.0873C28.5444 16.6325 28.2119 17.1217 27.7815 17.5158C28.8014 17.9573 29.6879 18.658 30.3531 19.5483C30.4122 19.6272 30.4551 19.7171 30.4794 19.8127C30.5037 19.9083 30.5089 20.0078 30.4947 20.1054C30.4805 20.203 30.4472 20.2969 30.3967 20.3816C30.3462 20.4664 30.2794 20.5403 30.2003 20.5992ZM25.149 26.3742C25.2014 26.4596 25.2361 26.5546 25.2512 26.6536C25.2662 26.7526 25.2613 26.8536 25.2367 26.9507C25.212 27.0478 25.1682 27.1389 25.1078 27.2188C25.0474 27.2987 24.9715 27.3656 24.8848 27.4157C24.7981 27.4658 24.7022 27.498 24.6028 27.5105C24.5035 27.5229 24.4026 27.5153 24.3062 27.4882C24.2098 27.461 24.1198 27.4148 24.0416 27.3523C23.9633 27.2898 23.8984 27.2122 23.8506 27.1242C23.3781 26.3244 22.7052 25.6616 21.8984 25.2012C21.0916 24.7408 20.1787 24.4986 19.2498 24.4986C18.3209 24.4986 17.408 24.7408 16.6012 25.2012C15.7944 25.6616 15.1215 26.3244 14.649 27.1242C14.6021 27.2138 14.5376 27.293 14.4593 27.3571C14.381 27.4211 14.2906 27.4687 14.1934 27.4968C14.0963 27.525 13.9944 27.5333 13.894 27.5211C13.7936 27.5089 13.6967 27.4765 13.6091 27.4259C13.5216 27.3753 13.4451 27.3074 13.3844 27.2265C13.3238 27.1456 13.2801 27.0532 13.256 26.955C13.2319 26.8567 13.228 26.7546 13.2444 26.6548C13.2608 26.555 13.2973 26.4596 13.3515 26.3742C14.0787 25.1249 15.1873 24.1417 16.5147 23.5692C15.7678 22.9973 15.2189 22.2058 14.9451 21.3059C14.6713 20.406 14.6864 19.4429 14.9883 18.552C15.2902 17.6611 15.8637 16.8872 16.6282 16.3391C17.3926 15.791 18.3096 15.4962 19.2503 15.4962C20.1909 15.4962 21.1079 15.791 21.8724 16.3391C22.6369 16.8872 23.2103 17.6611 23.5122 18.552C23.8141 19.4429 23.8292 20.406 23.5555 21.3059C23.2817 22.2058 22.7328 22.9973 21.9859 23.5692C23.3132 24.1417 24.4219 25.1249 25.149 26.3742ZM19.2503 22.9992C19.8436 22.9992 20.4236 22.8232 20.917 22.4936C21.4103 22.164 21.7949 21.6954 22.0219 21.1472C22.249 20.5991 22.3084 19.9959 22.1926 19.4139C22.0769 18.832 21.7912 18.2974 21.3716 17.8779C20.952 17.4583 20.4175 17.1726 19.8356 17.0568C19.2536 16.9411 18.6504 17.0005 18.1022 17.2276C17.5541 17.4546 17.0855 17.8391 16.7559 18.3325C16.4262 18.8258 16.2503 19.4058 16.2503 19.9992C16.2503 20.7948 16.5664 21.5579 17.129 22.1205C17.6916 22.6831 18.4546 22.9992 19.2503 22.9992ZM14.0003 17.7492C14.0003 17.5503 13.9213 17.3595 13.7806 17.2189C13.64 17.0782 13.4492 16.9992 13.2503 16.9992C12.8295 16.9992 12.4171 16.8811 12.06 16.6584C11.7029 16.4358 11.4154 16.1175 11.2302 15.7396C11.045 15.3617 10.9694 14.9395 11.0121 14.5209C11.0548 14.1022 11.214 13.7039 11.4718 13.3713C11.7295 13.0386 12.0753 12.7849 12.47 12.6389C12.8647 12.4929 13.2924 12.4606 13.7046 12.5455C14.1167 12.6304 14.4968 12.8292 14.8016 13.1193C15.1065 13.4095 15.3238 13.7792 15.429 14.1867C15.4788 14.3794 15.603 14.5444 15.7744 14.6455C15.9458 14.7466 16.1504 14.7755 16.3431 14.7258C16.5358 14.676 16.7008 14.5518 16.8019 14.3804C16.903 14.2089 16.9319 14.0044 16.8822 13.8117C16.7361 13.2467 16.4603 12.7235 16.0765 12.2839C15.6927 11.8443 15.2116 11.5003 14.6715 11.2793C14.1314 11.0583 13.5471 10.9664 12.9652 11.0109C12.3834 11.0555 11.8199 11.2352 11.3197 11.5358C10.8195 11.8364 10.3964 12.2497 10.084 12.7426C9.77159 13.2355 9.57855 13.7945 9.52022 14.3752C9.4619 14.9559 9.5399 15.5421 9.74801 16.0873C9.95613 16.6325 10.2886 17.1217 10.719 17.5158C9.70024 17.9577 8.8147 18.6584 8.15028 19.5483C8.03081 19.7074 7.97945 19.9075 8.00749 20.1045C8.03553 20.3015 8.14069 20.4792 8.29982 20.5987C8.45895 20.7182 8.65902 20.7696 8.85602 20.7415C9.05302 20.7135 9.23081 20.6083 9.35028 20.4492C9.80233 19.8416 10.3907 19.3486 11.0681 19.0099C11.7455 18.6712 12.4929 18.4963 13.2503 18.4992C13.4492 18.4992 13.64 18.4202 13.7806 18.2795C13.9213 18.1389 14.0003 17.9481 14.0003 17.7492Z" fill="#009606"/>
</svg>
