<svg width="38" height="38" viewBox="0 0 38 38" fill="none" xmlns="http://www.w3.org/2000/svg">
<circle cx="19" cy="19" r="19" fill="#D9FFDB"/>
<path opacity="0.2" d="M27.25 12V15.75H10.75V12C10.75 11.8011 10.829 11.6103 10.9697 11.4697C11.1103 11.329 11.3011 11.25 11.5 11.25H26.5C26.6989 11.25 26.8897 11.329 27.0303 11.4697C27.171 11.6103 27.25 11.8011 27.25 12Z" fill="#009606"/>
<path d="M26.5 10.5H24.25V9.75C24.25 9.55109 24.171 9.36032 24.0303 9.21967C23.8897 9.07902 23.6989 9 23.5 9C23.3011 9 23.1103 9.07902 22.9697 9.21967C22.829 9.36032 22.75 9.55109 22.75 9.75V10.5H15.25V9.75C15.25 9.55109 15.171 9.36032 15.0303 9.21967C14.8897 9.07902 14.6989 9 14.5 9C14.3011 9 14.1103 9.07902 13.9697 9.21967C13.829 9.36032 13.75 9.55109 13.75 9.75V10.5H11.5C11.1022 10.5 10.7206 10.658 10.4393 10.9393C10.158 11.2206 10 11.6022 10 12V27C10 27.3978 10.158 27.7794 10.4393 28.0607C10.7206 28.342 11.1022 28.5 11.5 28.5H26.5C26.8978 28.5 27.2794 28.342 27.5607 28.0607C27.842 27.7794 28 27.3978 28 27V12C28 11.6022 27.842 11.2206 27.5607 10.9393C27.2794 10.658 26.8978 10.5 26.5 10.5ZM13.75 12V12.75C13.75 12.9489 13.829 13.1397 13.9697 13.2803C14.1103 13.421 14.3011 13.5 14.5 13.5C14.6989 13.5 14.8897 13.421 15.0303 13.2803C15.171 13.1397 15.25 12.9489 15.25 12.75V12H22.75V12.75C22.75 12.9489 22.829 13.1397 22.9697 13.2803C23.1103 13.421 23.3011 13.5 23.5 13.5C23.6989 13.5 23.8897 13.421 24.0303 13.2803C24.171 13.1397 24.25 12.9489 24.25 12.75V12H26.5V15H11.5V12H13.75ZM26.5 27H11.5V16.5H26.5V27ZM20.125 19.875C20.125 20.0975 20.059 20.315 19.9354 20.5C19.8118 20.685 19.6361 20.8292 19.4305 20.9144C19.225 20.9995 18.9988 21.0218 18.7805 20.9784C18.5623 20.935 18.3618 20.8278 18.2045 20.6705C18.0472 20.5132 17.94 20.3127 17.8966 20.0945C17.8532 19.8762 17.8755 19.65 17.9606 19.4445C18.0458 19.2389 18.19 19.0632 18.375 18.9396C18.56 18.816 18.7775 18.75 19 18.75C19.2984 18.75 19.5845 18.8685 19.7955 19.0795C20.0065 19.2905 20.125 19.5766 20.125 19.875ZM24.25 19.875C24.25 20.0975 24.184 20.315 24.0604 20.5C23.9368 20.685 23.7611 20.8292 23.5555 20.9144C23.35 20.9995 23.1238 21.0218 22.9055 20.9784C22.6873 20.935 22.4868 20.8278 22.3295 20.6705C22.1722 20.5132 22.065 20.3127 22.0216 20.0945C21.9782 19.8762 22.0005 19.65 22.0856 19.4445C22.1708 19.2389 22.315 19.0632 22.5 18.9396C22.685 18.816 22.9025 18.75 23.125 18.75C23.4234 18.75 23.7095 18.8685 23.9205 19.0795C24.1315 19.2905 24.25 19.5766 24.25 19.875ZM16 23.625C16 23.8475 15.934 24.065 15.8104 24.25C15.6868 24.435 15.5111 24.5792 15.3055 24.6644C15.1 24.7495 14.8738 24.7718 14.6555 24.7284C14.4373 24.685 14.2368 24.5778 14.0795 24.4205C13.9222 24.2632 13.815 24.0627 13.7716 23.8445C13.7282 23.6262 13.7505 23.4 13.8356 23.1945C13.9208 22.9889 14.065 22.8132 14.25 22.6896C14.435 22.566 14.6525 22.5 14.875 22.5C15.1734 22.5 15.4595 22.6185 15.6705 22.8295C15.8815 23.0405 16 23.3266 16 23.625ZM20.125 23.625C20.125 23.8475 20.059 24.065 19.9354 24.25C19.8118 24.435 19.6361 24.5792 19.4305 24.6644C19.225 24.7495 18.9988 24.7718 18.7805 24.7284C18.5623 24.685 18.3618 24.5778 18.2045 24.4205C18.0472 24.2632 17.94 24.0627 17.8966 23.8445C17.8532 23.6262 17.8755 23.4 17.9606 23.1945C18.0458 22.9889 18.19 22.8132 18.375 22.6896C18.56 22.566 18.7775 22.5 19 22.5C19.2984 22.5 19.5845 22.6185 19.7955 22.8295C20.0065 23.0405 20.125 23.3266 20.125 23.625ZM24.25 23.625C24.25 23.8475 24.184 24.065 24.0604 24.25C23.9368 24.435 23.7611 24.5792 23.5555 24.6644C23.35 24.7495 23.1238 24.7718 22.9055 24.7284C22.6873 24.685 22.4868 24.5778 22.3295 24.4205C22.1722 24.2632 22.065 24.0627 22.0216 23.8445C21.9782 23.6262 22.0005 23.4 22.0856 23.1945C22.1708 22.9889 22.315 22.8132 22.5 22.6896C22.685 22.566 22.9025 22.5 23.125 22.5C23.4234 22.5 23.7095 22.6185 23.9205 22.8295C24.1315 23.0405 24.25 23.3266 24.25 23.625Z" fill="#009606"/>
</svg>
