<svg width="29" height="29" viewBox="0 0 29 29" fill="none" xmlns="http://www.w3.org/2000/svg">
<path d="M14.2135 28.4313C6.36958 28.4313 0.00506962 22.0661 3.01137e-06 14.2199C-0.0050636 6.37364 6.38394 -0.0168548 14.233 3.3396e-05C22.082 0.0169216 28.4414 6.38377 28.4313 14.2258C28.4212 22.0678 22.0575 28.4355 14.2135 28.4313ZM15.4329 18.4994C15.4329 17.3729 15.438 16.2456 15.4278 15.1217C15.4278 14.9081 15.4709 14.8321 15.7006 14.8372C16.3846 14.8532 17.0694 14.8372 17.7543 14.8448C17.8944 14.8448 17.9882 14.8372 18.0076 14.6556C18.0878 13.8492 18.1714 13.0436 18.2753 12.2406C18.3048 12.0092 18.2204 11.9873 18.0279 11.9873C17.2594 11.9957 16.491 11.9873 15.7225 11.9873C15.5993 11.9873 15.4692 12.0219 15.4692 11.8125C15.4802 11.137 15.4591 10.4614 15.4844 9.79096C15.5038 9.2725 15.921 8.9094 16.4479 8.90602C16.9748 8.90265 17.522 8.90011 18.0591 8.91362C18.2499 8.91869 18.3124 8.86971 18.3074 8.67043C18.295 7.97577 18.295 7.28082 18.3074 6.58559C18.3074 6.37617 18.2474 6.32044 18.0405 6.32297C17.24 6.33057 16.4361 6.31537 15.6398 6.31453C14.0641 6.31453 12.5998 7.7686 12.5956 9.34005C12.5956 10.1296 12.588 10.9199 12.5998 11.7095C12.5998 11.9054 12.5492 11.956 12.3549 11.9527C11.7022 11.94 11.0494 11.9527 10.3967 11.9434C10.1966 11.9434 10.1223 11.9839 10.1256 12.1967C10.1383 12.9972 10.14 13.8011 10.1256 14.5973C10.1214 14.8346 10.2101 14.8726 10.417 14.8684C11.0275 14.8566 11.6389 14.8794 12.2485 14.8574C12.5188 14.8481 12.5736 14.936 12.5728 15.1952C12.5627 17.4067 12.5728 19.6174 12.5601 21.8289C12.5601 22.0678 12.6193 22.1244 12.8532 22.1193C13.6216 22.1033 14.3909 22.105 15.1593 22.1193C15.3755 22.1236 15.4405 22.0738 15.438 21.8474C15.4228 20.732 15.4329 19.6157 15.4329 18.4994Z" fill="#217331"/>
</svg>
