<svg width="60" height="60" viewBox="0 0 60 60" fill="none" xmlns="http://www.w3.org/2000/svg">
<path d="M15.0356 21.6631C14.8606 20.4456 14.4831 18.9981 14.0306 17.2681L12.6806 12.0781L12.6556 11.9856C14.4388 10.266 16.4676 8.82108 18.6756 7.69806L22.7556 10.7931C24.1556 11.8531 25.3306 12.7456 26.3731 13.3606C26.9181 13.6856 27.4656 13.9556 28.0381 14.1506V21.7056C27.7315 21.8489 27.439 22.0289 27.1606 22.2456L22.3306 26.0431C22.1538 26.1841 21.9868 26.3369 21.8306 26.5006L15.1331 23.5981C15.1676 22.9513 15.1366 22.3028 15.0356 21.6631ZM10.1131 25.5056C9.37563 26.1406 8.33812 26.8481 6.77562 27.9081L5.01562 29.1056C5.18411 24.1866 6.80659 19.4279 9.67812 15.4306L10.3781 18.1131C10.8606 19.9706 11.1806 21.2131 11.3231 22.2006C11.4606 23.1406 11.4031 23.6556 11.2481 24.0706C11.0981 24.4831 10.8131 24.9031 10.1131 25.5056ZM13.2531 42.2106C14.9906 42.2106 16.4531 42.2106 17.6506 42.3506C18.2806 42.4256 18.8831 42.5431 19.4581 42.7356L22.9956 38.1056C22.8675 37.8517 22.7613 37.5874 22.6781 37.3156L20.7756 30.9981C20.6861 30.6887 20.6266 30.3714 20.5981 30.0506L13.7806 27.1006C13.4133 27.5532 13.0039 27.97 12.5581 28.3456C11.6381 29.1381 10.4181 29.9656 8.96812 30.9531L5.23812 33.4856C5.66301 36.552 6.65941 39.5115 8.17562 42.2106H13.2531ZM29.4806 25.1931C29.6039 25.0937 29.7573 25.039 29.9156 25.0381C30.0673 25.0381 30.2131 25.0897 30.3531 25.1931L35.1831 28.9881C35.3165 29.0914 35.409 29.2297 35.4606 29.4031C35.5113 29.5718 35.5113 29.7518 35.4606 29.9206L33.5656 36.2356C33.5193 36.3965 33.4251 36.5395 33.2956 36.6456C33.1703 36.7489 33.013 36.8055 32.8506 36.8056H26.9831C26.8204 36.8048 26.6631 36.7473 26.5381 36.6431C26.409 36.5376 26.3149 36.3955 26.2681 36.2356L24.3706 29.9206C24.32 29.7518 24.32 29.5718 24.3706 29.4031C24.4187 29.2391 24.5166 29.0941 24.6506 28.9881L29.4806 25.1931ZM33.4406 13.4381C34.4956 12.8456 35.6906 11.9781 37.1106 10.9506L41.4606 7.79556C43.6141 8.91458 45.5932 10.3412 47.3356 12.0306L45.9706 17.2681C45.5206 18.9981 45.1431 20.4456 44.9656 21.6631C44.8653 22.2995 44.8318 22.9447 44.8656 23.5881L38.0081 26.5056C37.8498 26.3391 37.6803 26.1837 37.5006 26.0406L32.6706 22.2431C32.399 22.0299 32.1037 21.8487 31.7906 21.7031V14.1781C32.3556 13.9981 32.9006 13.7406 33.4406 13.4381ZM28.2831 10.1306C27.4506 9.63806 26.4456 8.88056 24.9406 7.73806L22.7331 6.06306C25.082 5.35461 27.5223 4.99577 29.9756 4.99806C32.5556 4.99806 35.0456 5.39056 37.3881 6.11806L34.9981 7.85056C33.4681 8.95806 32.4481 9.69556 31.6056 10.1681C30.8056 10.6181 30.3381 10.7281 29.9406 10.7231C29.5431 10.7181 29.0781 10.5981 28.2856 10.1306M47.4406 28.3481C48.3606 29.1381 49.5806 29.9681 51.0306 30.9531L54.7056 33.4481C54.2845 36.5276 53.2871 39.5002 51.7656 42.2106H47.1206C45.3831 42.2106 43.9206 42.2106 42.7231 42.3506C42.0841 42.4179 41.4545 42.5554 40.8456 42.7606L36.8706 38.0356C36.9841 37.8033 37.0794 37.5626 37.1556 37.3156L39.0556 30.9981C39.1473 30.6881 39.2056 30.3756 39.2306 30.0606L46.2106 27.0906C46.5706 27.5372 46.9806 27.9556 47.4406 28.3456M37.0206 46.5656C36.5181 47.6806 36.0556 49.1006 35.5056 50.8006L34.2656 54.6306C31.5771 55.0993 28.8299 55.1246 26.1331 54.7056L24.8681 50.8006C24.3181 49.1006 23.8556 47.6806 23.3531 46.5631C23.1052 46.0088 22.8073 45.4783 22.4631 44.9781L25.9381 40.4306C26.2765 40.5139 26.6248 40.5556 26.9831 40.5556H32.8506C33.234 40.5556 33.6065 40.5081 33.9681 40.4131L37.8656 45.0431C37.5404 45.5242 37.2576 46.0328 37.0206 46.5631M21.3331 52.0556C20.7406 50.2306 20.3431 49.0106 19.9331 48.1106C19.5456 47.2481 19.2256 46.8606 18.8881 46.6106C18.5581 46.3656 18.1131 46.1806 17.2131 46.0756C16.2606 45.9631 15.0181 45.9606 13.1456 45.9606H10.7531C13.677 49.491 17.5152 52.1495 21.8481 53.6456L21.3331 52.0556ZM43.1606 46.0756C44.1131 45.9631 45.3556 45.9606 47.2281 45.9606H49.1906C46.379 49.3562 42.7195 51.948 38.5831 53.4731L39.0406 52.0556C39.6331 50.2306 40.0306 49.0106 40.4406 48.1106C40.8281 47.2481 41.1481 46.8606 41.4856 46.6106C41.8156 46.3656 42.2606 46.1806 43.1606 46.0756ZM48.6756 22.1981C48.8206 21.2156 49.1431 19.9706 49.6256 18.1131L50.3081 15.4881C53.1451 19.4624 54.7508 24.1832 54.9256 29.0631L53.2256 27.9106C51.6631 26.8481 50.6256 26.1406 49.8881 25.5056C49.1881 24.9031 48.9056 24.4831 48.7531 24.0731C48.5981 23.6556 48.5406 23.1406 48.6781 22.1981" fill="url(#paint0_linear_2143_447)"/>
<defs>
<linearGradient id="paint0_linear_2143_447" x1="29.9706" y1="4.99805" x2="29.9706" y2="55.002" gradientUnits="userSpaceOnUse">
<stop stop-color="#60C44D"/>
<stop offset="1" stop-color="#024805"/>
</linearGradient>
</defs>
</svg>
