<svg width="29" height="29" viewBox="0 0 29 29" fill="none" xmlns="http://www.w3.org/2000/svg">
<path d="M15.376 28.6108H13.1404C13.1105 28.5219 13.0321 28.5563 12.9746 28.5511C11.7244 28.4313 10.4953 28.1475 9.31911 27.707C2.48318 25.1077 -1.309 17.9499 0.413429 10.901C2.1986 3.59231 9.3333 -1.06632 16.7869 0.21019C22.8289 1.24619 27.5674 6.12216 28.469 12.2149C28.5168 12.5383 28.4981 12.8737 28.6184 13.1859V15.4738C28.5213 15.5126 28.5638 15.6007 28.5571 15.6665C28.4488 16.6771 28.2793 17.678 27.9401 18.6355C25.9946 24.1394 22.1482 27.4125 16.4008 28.4547C16.0602 28.516 15.7069 28.4891 15.376 28.6108ZM14.3422 7.1492C13.3921 7.1492 12.4428 7.1492 11.4927 7.1492C9.03826 7.15443 7.16048 9.02773 7.16048 11.4814C7.16048 13.3632 7.16048 15.2445 7.16048 17.1252C7.16048 19.5774 9.03901 21.4537 11.4927 21.4574C13.3735 21.4609 15.2547 21.4609 17.1365 21.4574C19.5909 21.4537 21.4635 19.5819 21.4687 17.1252C21.4727 15.233 21.4727 13.3423 21.4687 11.453C21.4627 9.0352 19.5835 7.15741 17.1656 7.1492C16.2238 7.14621 15.2826 7.1492 14.3422 7.1492Z" fill="#217331"/>
<path d="M8.60247 14.2785C8.60247 13.3658 8.60247 12.4538 8.60247 11.5418C8.60695 9.79321 9.80204 8.60036 11.5484 8.59961C13.3908 8.59961 15.2332 8.59961 17.0757 8.59961C18.8228 8.59961 20.0171 9.7947 20.0201 11.5433C20.0231 13.3857 20.0231 15.2281 20.0201 17.0706C20.0164 18.8191 18.825 20.0113 17.0742 20.0142C15.2128 20.0142 13.3507 20.0202 11.4886 20.0142C10.0172 20.009 8.89228 19.0746 8.63683 17.6547C8.6073 17.4522 8.5953 17.2475 8.60098 17.0429C8.60023 16.1182 8.60247 15.1965 8.60247 14.2785ZM14.2881 18.002C15.262 18.0094 16.1993 17.6315 16.8957 16.9506C17.5921 16.2698 17.991 15.3412 18.0056 14.3674C18.0153 13.8805 17.9285 13.3966 17.7501 12.9434C17.5718 12.4903 17.3054 12.0769 16.9664 11.7273C16.6275 11.3776 16.2226 11.0986 15.7752 10.9062C15.3278 10.7139 14.8468 10.612 14.3598 10.6066C13.873 10.5986 13.3893 10.6872 12.9369 10.8672C12.4845 11.0473 12.0722 11.3152 11.724 11.6555C11.3757 11.9959 11.0984 12.4019 10.908 12.85C10.7176 13.2982 10.6179 13.7797 10.6147 14.2666C10.6085 14.7535 10.6988 15.2367 10.8805 15.6885C11.0622 16.1402 11.3316 16.5515 11.6732 16.8985C12.0148 17.2455 12.4217 17.5214 12.8706 17.7101C13.3194 17.8989 13.8012 17.9968 14.2881 17.9983V18.002ZM18.0422 11.5149C18.2819 11.5131 18.5113 11.4172 18.6809 11.2479C18.8506 11.0785 18.9468 10.8493 18.949 10.6096C18.9482 10.365 18.8504 10.1307 18.677 9.9582C18.5036 9.78567 18.2689 9.68899 18.0243 9.68939C17.7845 9.69398 17.5558 9.79133 17.3863 9.96098C17.2168 10.1306 17.1197 10.3594 17.1153 10.5992C17.1154 10.7203 17.1395 10.8403 17.1862 10.9521C17.233 11.0639 17.3014 11.1653 17.3876 11.2504C17.4739 11.3356 17.5761 11.4028 17.6884 11.4482C17.8008 11.4936 17.921 11.5163 18.0422 11.5149Z" fill="#217331"/>
<path d="M16.5683 14.3095C16.5685 14.6054 16.5103 14.8985 16.3969 15.1718C16.2835 15.4452 16.1172 15.6935 15.9076 15.9024C15.698 16.1113 15.4492 16.2767 15.1755 16.3892C14.9018 16.5017 14.6085 16.559 14.3126 16.5578C14.0141 16.5587 13.7184 16.5002 13.4427 16.3856C13.1671 16.2711 12.917 16.1029 12.707 15.8907C12.497 15.6785 12.3314 15.4266 12.2198 15.1498C12.1082 14.8729 12.0528 14.5766 12.0568 14.2781C12.0585 13.9822 12.1186 13.6895 12.2337 13.4169C12.3488 13.1442 12.5167 12.897 12.7276 12.6894C12.9385 12.4818 13.1884 12.3179 13.4628 12.2072C13.7372 12.0964 14.0309 12.041 14.3268 12.0441C14.6231 12.0444 14.9163 12.1035 15.1897 12.2178C15.463 12.332 15.711 12.4993 15.9194 12.7099C16.1278 12.9205 16.2924 13.1703 16.4038 13.4448C16.5152 13.7194 16.5711 14.0132 16.5683 14.3095Z" fill="#217331"/>
</svg>
