<svg width="38" height="38" viewBox="0 0 38 38" fill="none" xmlns="http://www.w3.org/2000/svg">
<circle cx="19" cy="19" r="19" fill="#D9FFDB"/>
<path opacity="0.2" d="M26.25 11V26.75H21V11H26.25Z" fill="#99D19B"/>
<path d="M27.75 25.75H27V10.75C27 10.5511 26.921 10.3603 26.7803 10.2197C26.6397 10.079 26.4489 10 26.25 10H21C20.8011 10 20.6103 10.079 20.4697 10.2197C20.329 10.3603 20.25 10.5511 20.25 10.75V14.5H15.75C15.5511 14.5 15.3603 14.579 15.2197 14.7197C15.079 14.8603 15 15.0511 15 15.25V19H11.25C11.0511 19 10.8603 19.079 10.7197 19.2197C10.579 19.3603 10.5 19.5511 10.5 19.75V25.75H9.75C9.55109 25.75 9.36032 25.829 9.21967 25.9697C9.07902 26.1103 9 26.3011 9 26.5C9 26.6989 9.07902 26.8897 9.21967 27.0303C9.36032 27.171 9.55109 27.25 9.75 27.25H27.75C27.9489 27.25 28.1397 27.171 28.2803 27.0303C28.421 26.8897 28.5 26.6989 28.5 26.5C28.5 26.3011 28.421 26.1103 28.2803 25.9697C28.1397 25.829 27.9489 25.75 27.75 25.75ZM21.75 11.5H25.5V25.75H21.75V11.5ZM16.5 16H20.25V25.75H16.5V16ZM12 20.5H15V25.75H12V20.5Z" fill="#009606"/>
</svg>
