<svg width="29" height="29" viewBox="0 0 29 29" fill="none" xmlns="http://www.w3.org/2000/svg">
<path d="M0 15.385V13.0538C0.0868578 13.0232 0.0501103 12.9464 0.0556781 12.8868C0.119708 12.4483 0.15924 12.0048 0.246098 11.5707C1.01111 7.74969 2.98546 4.70168 6.19586 2.49956C9.42853 0.279084 13.0159 -0.443825 16.8649 0.258492C19.9233 0.815003 22.5301 2.26471 24.6292 4.55754C27.633 7.84096 28.8518 11.721 28.304 16.1269C27.9504 19.0023 26.7617 21.5272 24.8224 23.677C22.5329 26.2203 19.6878 27.7618 16.2947 28.2794C15.9551 28.3311 15.6049 28.3167 15.2747 28.4313H13.0537C13.0231 28.3439 12.9463 28.379 12.8867 28.3729C12.2153 28.3054 11.5491 28.1939 10.8923 28.039C8.13387 27.3741 5.63712 25.9006 3.72244 23.8074C1.80776 21.7143 0.56249 19.0971 0.146434 16.2916C0.105789 15.9911 0.126946 15.6755 0 15.385ZM15.4685 12.5201C15.4685 12.0615 15.4651 11.6675 15.4685 11.2741C15.4685 11.1444 15.4523 11.0698 15.2914 11.0709C14.2547 11.0765 13.218 11.0765 12.1813 11.0709C12.0254 11.0709 11.9958 11.1316 12.0025 11.268C12.0142 11.5078 12.0142 11.7488 12.0142 11.9914C12.0109 15.0634 12.0109 18.1347 11.9964 21.2067C11.9964 21.4593 12.0643 21.5055 12.2998 21.5022C13.2809 21.4877 14.2619 21.4911 15.243 21.5022C15.4239 21.5022 15.4729 21.456 15.4713 21.2746C15.4618 20.3029 15.4646 19.3318 15.4674 18.3601C15.47 17.361 15.4759 16.3619 15.4852 15.3628C15.4885 14.9176 15.6795 14.5375 15.9651 14.2102C16.4696 13.6326 17.116 13.4567 17.8482 13.6315C18.5163 13.7917 18.842 14.2893 19.0013 14.9209C19.0842 15.2815 19.1216 15.6512 19.1126 16.0211C19.1126 17.7608 19.1126 19.5004 19.1076 21.2395C19.1076 21.4332 19.1343 21.5072 19.3559 21.5039C20.3466 21.4894 21.337 21.4894 22.3269 21.5039C22.5457 21.5072 22.5791 21.4399 22.578 21.2423C22.5708 19.373 22.5747 17.5042 22.573 15.6355C22.5777 15.2284 22.5533 14.8214 22.5001 14.4178C22.2217 12.4995 21.1248 11.0787 19.0993 10.8678C17.6706 10.7215 16.4668 11.126 15.6132 12.3459C15.5826 12.3849 15.5464 12.4233 15.4685 12.5201ZM6.62235 16.3044C6.62235 17.9505 6.62625 19.5961 6.61678 21.2423C6.61678 21.4521 6.66968 21.5016 6.87624 21.4994C7.86583 21.4875 8.8556 21.4875 9.84556 21.4994C10.0621 21.4994 10.0994 21.4354 10.0994 21.2356C10.0928 17.9337 10.0928 14.6317 10.0994 11.3297C10.0994 11.1244 10.0505 11.0632 9.83943 11.0659C8.86803 11.0778 7.89664 11.0778 6.92524 11.0659C6.69083 11.0659 6.61289 11.1066 6.61511 11.3642C6.6268 13.0115 6.62012 14.6577 6.62012 16.3038L6.62235 16.3044ZM8.25149 6.05901C7.62344 6.08461 6.97368 6.33003 6.60843 7.06073C6.49906 7.27529 6.43465 7.50992 6.41914 7.75023C6.40364 7.99054 6.43737 8.23149 6.51826 8.45832C6.59915 8.68515 6.72551 8.89309 6.8896 9.06942C7.05369 9.24574 7.25206 9.38674 7.47256 9.48378C8.52153 9.94958 9.79099 9.51105 10.1835 8.54773C10.6869 7.30281 9.78932 6.06123 8.24926 6.05845L8.25149 6.05901Z" fill="#217331"/>
</svg>
