<svg width="60" height="60" viewBox="0 0 60 60" fill="none" xmlns="http://www.w3.org/2000/svg">
<path fill-rule="evenodd" clip-rule="evenodd" d="M14.0625 7.5C13.3166 7.5 12.6012 7.79632 12.0738 8.32376C11.5463 8.85121 11.25 9.56658 11.25 10.3125C11.25 11.0584 11.5463 11.7738 12.0738 12.3012C12.6012 12.8287 13.3166 13.125 14.0625 13.125H15V46.875H14.0625C13.3166 46.875 12.6012 47.1713 12.0738 47.6988C11.5463 48.2262 11.25 48.9416 11.25 49.6875C11.25 50.4334 11.5463 51.1488 12.0738 51.6762C12.6012 52.2037 13.3166 52.5 14.0625 52.5H22.5C22.9973 52.5 23.4742 52.3025 23.8258 51.9508C24.1775 51.5992 24.375 51.1223 24.375 50.625V39.375C24.375 38.8777 24.5725 38.4008 24.9242 38.0492C25.2758 37.6975 25.7527 37.5 26.25 37.5H33.75C34.2473 37.5 34.7242 37.6975 35.0758 38.0492C35.4275 38.4008 35.625 38.8777 35.625 39.375V50.625C35.625 51.1223 35.8225 51.5992 36.1742 51.9508C36.5258 52.3025 37.0027 52.5 37.5 52.5H45.9375C46.6834 52.5 47.3988 52.2037 47.9262 51.6762C48.4537 51.1488 48.75 50.4334 48.75 49.6875C48.75 48.9416 48.4537 48.2262 47.9262 47.6988C47.3988 47.1713 46.6834 46.875 45.9375 46.875H45V13.125H45.9375C46.6834 13.125 47.3988 12.8287 47.9262 12.3012C48.4537 11.7738 48.75 11.0584 48.75 10.3125C48.75 9.56658 48.4537 8.85121 47.9262 8.32376C47.3988 7.79632 46.6834 7.5 45.9375 7.5H14.0625ZM24.375 15C23.8777 15 23.4008 15.1975 23.0492 15.5492C22.6975 15.9008 22.5 16.3777 22.5 16.875V18.75C22.5 19.2473 22.6975 19.7242 23.0492 20.0758C23.4008 20.4275 23.8777 20.625 24.375 20.625H26.25C26.7473 20.625 27.2242 20.4275 27.5758 20.0758C27.9275 19.7242 28.125 19.2473 28.125 18.75V16.875C28.125 16.3777 27.9275 15.9008 27.5758 15.5492C27.2242 15.1975 26.7473 15 26.25 15H24.375ZM22.5 26.25C22.5 25.7527 22.6975 25.2758 23.0492 24.9242C23.4008 24.5725 23.8777 24.375 24.375 24.375H26.25C26.7473 24.375 27.2242 24.5725 27.5758 24.9242C27.9275 25.2758 28.125 25.7527 28.125 26.25V28.125C28.125 28.6223 27.9275 29.0992 27.5758 29.4508C27.2242 29.8025 26.7473 30 26.25 30H24.375C23.8777 30 23.4008 29.8025 23.0492 29.4508C22.6975 29.0992 22.5 28.6223 22.5 28.125V26.25ZM33.75 15C33.2527 15 32.7758 15.1975 32.4242 15.5492C32.0725 15.9008 31.875 16.3777 31.875 16.875V18.75C31.875 19.2473 32.0725 19.7242 32.4242 20.0758C32.7758 20.4275 33.2527 20.625 33.75 20.625H35.625C36.1223 20.625 36.5992 20.4275 36.9508 20.0758C37.3025 19.7242 37.5 19.2473 37.5 18.75V16.875C37.5 16.3777 37.3025 15.9008 36.9508 15.5492C36.5992 15.1975 36.1223 15 35.625 15H33.75ZM31.875 26.25C31.875 25.7527 32.0725 25.2758 32.4242 24.9242C32.7758 24.5725 33.2527 24.375 33.75 24.375H35.625C36.1223 24.375 36.5992 24.5725 36.9508 24.9242C37.3025 25.2758 37.5 25.7527 37.5 26.25V28.125C37.5 28.6223 37.3025 29.0992 36.9508 29.4508C36.5992 29.8025 36.1223 30 35.625 30H33.75C33.2527 30 32.7758 29.8025 32.4242 29.4508C32.0725 29.0992 31.875 28.6223 31.875 28.125V26.25Z" fill="url(#paint0_linear_2143_442)"/>
<defs>
<linearGradient id="paint0_linear_2143_442" x1="30" y1="7.5" x2="30" y2="52.5" gradientUnits="userSpaceOnUse">
<stop stop-color="#60C44D"/>
<stop offset="1" stop-color="#024805"/>
</linearGradient>
</defs>
</svg>
