<svg width="29" height="29" viewBox="0 0 29 29" fill="none" xmlns="http://www.w3.org/2000/svg">
<path d="M13.0515 0H15.2743C15.2983 0.0751121 15.3629 0.0489621 15.413 0.0523004C16.1691 0.106323 16.9189 0.228482 17.6531 0.41729C25.1644 2.34851 29.7164 9.67166 28.1093 17.2352C26.4637 24.9884 18.5694 29.9241 10.8665 28.0235C5.21392 26.6286 1.01317 22.0251 0.15086 16.2837C0.105211 15.9811 0.126924 15.6656 0 15.3757V12.9888C0.0912965 12.9621 0.0556672 12.8831 0.0612341 12.8269C0.127596 12.2115 0.229829 11.6005 0.367411 10.997C1.74688 5.2534 6.3117 1.04823 12.1458 0.150224C12.4481 0.104044 12.7626 0.1263 13.0515 0ZM21.8126 8.11266C21.2893 8.49268 20.6831 8.66905 20.0713 8.83597C19.8998 8.88382 19.7891 8.861 19.656 8.73415C18.7169 7.84393 17.3124 7.61859 16.125 8.13826C15.4607 8.43352 14.9136 8.94144 14.5702 9.58189C14.2268 10.2223 14.1065 10.9588 14.2283 11.6752C14.2512 11.8188 14.2528 11.8672 14.0808 11.8538C12.0767 11.6941 10.3004 10.9786 8.75556 9.68891C8.31578 9.32447 7.92888 8.90885 7.51804 8.44928C6.73367 10.1702 7.06323 11.6023 8.48946 12.808C7.97063 12.7858 7.52194 12.6294 7.07047 12.4185C7.08272 13.2075 7.31318 13.8841 7.7847 14.4772C8.25621 15.0703 8.86133 15.4364 9.65182 15.6411C9.1419 15.7875 8.69154 15.783 8.20444 15.7001C8.75834 17.0966 9.74701 17.8361 11.2334 17.9813C9.83274 19.0724 8.26345 19.4329 6.57001 19.3889C6.64964 19.4496 6.73418 19.5036 6.82274 19.5503C8.92479 20.7471 11.1688 21.0525 13.518 20.5629C18.0578 19.6121 20.6325 15.5132 20.7054 11.6819C20.7132 11.264 20.7872 10.9719 21.1507 10.7132C21.6094 10.3855 21.9702 9.94206 22.3125 9.41016C21.7102 9.6444 21.1613 9.823 20.5005 9.88642C21.1179 9.47025 21.5354 8.98897 21.7904 8.37584C21.8232 8.29738 21.9334 8.20892 21.8137 8.11211C21.8204 8.1288 21.826 8.14549 21.8332 8.16163C21.8332 8.16163 21.8444 8.16163 21.8499 8.16163L21.8126 8.11266Z" fill="#217331"/>
</svg>
