<svg width="29" height="29" viewBox="0 0 29 29" fill="none" xmlns="http://www.w3.org/2000/svg">
<mask id="mask0_2270_5251" style="mask-type:alpha" maskUnits="userSpaceOnUse" x="0" y="0" width="29" height="29">
<circle cx="14.5" cy="14.5" r="14.5" fill="#D9D9D9"/>
</mask>
<g mask="url(#mask0_2270_5251)">
<path d="M4.14286 0C1.85781 0 0 1.85781 0 4.14286V24.8571C0 27.1422 1.85781 29 4.14286 29H24.8571C27.1422 29 29 27.1422 29 24.8571V4.14286C29 1.85781 27.1422 0 24.8571 0H4.14286ZM23.3748 5.4375L16.6556 13.1147L24.5594 23.5625H18.371L13.529 17.2252L7.98147 23.5625H4.9067L12.092 15.348L4.51183 5.4375H10.8556L15.2379 11.231L20.3 5.4375H23.3748ZM20.9279 21.7241L9.92991 7.17879H8.09799L19.219 21.7241H20.9214H20.9279Z" fill="#217331"/>
</g>
</svg>
